# xmcd CD database file
#
# Track frame offsets:
#	150
#	13317
#	32852
#	47805
#	60367
#	75887
#	87907
#	99607
#	114012
#	127170
#	138680
#	151837
#	166862
#	180107
#	193785
#	205252
#	218307
#	233072
#	242815
#	257375
#	270892
#	283240
#
# Disc length: 3949 seconds
#
# Revision: 4
# Processed by: cddbd v1.5.1PL0 Copyright (c) Steve Scherf et al.
# Submitted via: CDex 1.51
#
DISCID=1c0f6b16
DTITLE=筒美京平 - HITSTORY - ULTIMATE COLLECTION 1967-1997 VOL.1(DISC2)
DYEAR=1997
DGENRE=JPop
TTITLE0=また逢う日まで - 尾崎紀世彦
TTITLE1=真夏の出来事 - 平山三紀
TTITLE2=さらば恋人 - 堺正章
TTITLE3=お世話になりました - 井上順之
TTITLE4=さいはて慕情 - 渚ゆう子
TTITLE5=夜が明けて - 坂本スミ子
TTITLE6=誰も知らない - 伊東ゆかり
TTITLE7=雨の日のブルース - 渚ゆう子
TTITLE8=雨のエアポート - 欧陽菲菲
TTITLE9=愛する人はひとり - 尾崎紀世彦
TTITLE10=かもめ町 みなと町 - 五木ひろし
TTITLE11=フレンズ - 平山三紀
TTITLE12=恋の追跡(ラヴ・チェイス) - 欧陽菲菲
TTITLE13=ひまわりの小径 - 朝倉理恵
TTITLE14=愛の挽歌 - かまやつひろし
TTITLE15=恋の十字路 - 欧陽菲菲
TTITLE16=あの場所から - 朝倉理恵
TTITLE17=青春挽歌 - かまやつひろし
TTITLE18=恋の風車 - チェリッシュ
TTITLE19=今夜かしら明日かしら - テレサ・テン
TTITLE20=恋のダウン・タウン - 平山三紀
TTITLE21=或る日 - ザリバ
EXTD=SMEJ  SRCL 4072 YEAR: 1997
EXTT0=
EXTT1=
EXTT2=
EXTT3=
EXTT4=
EXTT5=
EXTT6=
EXTT7=
EXTT8=
EXTT9=
EXTT10=
EXTT11=
EXTT12=
EXTT13=
EXTT14=
EXTT15=
EXTT16=
EXTT17=
EXTT18=
EXTT19=
EXTT20=
EXTT21=
PLAYORDER=
